<svg xmlns="http://www.w3.org/2000/svg" width="900" height="540" viewBox="0 0 900 540" role="img" aria-labelledby="title desc">
  <title id="title">Comparison of product, classical, and entangled states in Z and X bases</title>
  <desc id="desc">The product plus state is uniform in Z and gives 00 in X. A classical 00 or 11 mixture gives matching outcomes in Z and uniform outcomes in X. The Bell Phi plus state gives matching outcomes in both bases.</desc>
  <rect width="900" height="540" fill="#f8fafc"/>
  <rect x="30" y="28" width="840" height="484" rx="8" fill="#ffffff" stroke="#cbd5e1" stroke-width="2"/>
  <text x="60" y="72" font-family="Arial, sans-serif" font-size="27" font-weight="700" fill="#0f172a">One pattern is not enough: change the measurement basis</text>
  <text x="60" y="102" font-family="Arial, sans-serif" font-size="16" fill="#475569">Bar order in every panel: 00, 01, 10, 11</text>

  <text x="452" y="138" text-anchor="middle" font-family="Arial, sans-serif" font-size="21" font-weight="700" fill="#1d4ed8">Z basis</text>
  <text x="692" y="138" text-anchor="middle" font-family="Arial, sans-serif" font-size="21" font-weight="700" fill="#7c3aed">X basis</text>

  <text x="58" y="202" font-family="Cambria Math, STIX Two Math, serif" font-size="18" font-weight="700" fill="#334155">Product |+⟩|+⟩</text>
  <text x="58" y="222" font-family="Arial, sans-serif" font-size="14" fill="#64748b">separate qubits</text>
  <line x1="330" y1="232" x2="574" y2="232" stroke="#94a3b8" stroke-width="2"/>
  <rect x="352" y="192" width="34" height="40" fill="#60a5fa"/><rect x="405" y="192" width="34" height="40" fill="#60a5fa"/><rect x="458" y="192" width="34" height="40" fill="#60a5fa"/><rect x="511" y="192" width="34" height="40" fill="#60a5fa"/>
  <line x1="590" y1="232" x2="834" y2="232" stroke="#94a3b8" stroke-width="2"/>
  <rect x="612" y="160" width="34" height="72" fill="#8b5cf6"/><rect x="665" y="230" width="34" height="2" fill="#c4b5fd"/><rect x="718" y="230" width="34" height="2" fill="#c4b5fd"/><rect x="771" y="230" width="34" height="2" fill="#c4b5fd"/>

  <text x="58" y="328" font-family="Arial, sans-serif" font-size="18" font-weight="700" fill="#334155">Classical 00/11 mix</text>
  <text x="58" y="348" font-family="Arial, sans-serif" font-size="14" fill="#64748b">preselected matching values</text>
  <line x1="330" y1="358" x2="574" y2="358" stroke="#94a3b8" stroke-width="2"/>
  <rect x="352" y="302" width="34" height="56" fill="#60a5fa"/><rect x="405" y="356" width="34" height="2" fill="#bfdbfe"/><rect x="458" y="356" width="34" height="2" fill="#bfdbfe"/><rect x="511" y="302" width="34" height="56" fill="#60a5fa"/>
  <line x1="590" y1="358" x2="834" y2="358" stroke="#94a3b8" stroke-width="2"/>
  <rect x="612" y="318" width="34" height="40" fill="#8b5cf6"/><rect x="665" y="318" width="34" height="40" fill="#8b5cf6"/><rect x="718" y="318" width="34" height="40" fill="#8b5cf6"/><rect x="771" y="318" width="34" height="40" fill="#8b5cf6"/>

  <text x="58" y="454" font-family="Cambria Math, STIX Two Math, serif" font-size="18" font-weight="700" fill="#334155">Bell |Φ+⟩</text>
  <text x="58" y="474" font-family="Arial, sans-serif" font-size="14" fill="#64748b">entangled whole state</text>
  <line x1="330" y1="484" x2="574" y2="484" stroke="#94a3b8" stroke-width="2"/>
  <rect x="352" y="428" width="34" height="56" fill="#059669"/><rect x="405" y="482" width="34" height="2" fill="#a7f3d0"/><rect x="458" y="482" width="34" height="2" fill="#a7f3d0"/><rect x="511" y="428" width="34" height="56" fill="#059669"/>
  <line x1="590" y1="484" x2="834" y2="484" stroke="#94a3b8" stroke-width="2"/>
  <rect x="612" y="428" width="34" height="56" fill="#059669"/><rect x="665" y="482" width="34" height="2" fill="#a7f3d0"/><rect x="718" y="482" width="34" height="2" fill="#a7f3d0"/><rect x="771" y="428" width="34" height="56" fill="#059669"/>

  <line x1="310" y1="150" x2="310" y2="492" stroke="#e2e8f0" stroke-width="2"/>
  <line x1="580" y1="150" x2="580" y2="492" stroke="#e2e8f0" stroke-width="2"/>
  <line x1="48" y1="252" x2="850" y2="252" stroke="#e2e8f0" stroke-width="2"/>
  <line x1="48" y1="378" x2="850" y2="378" stroke="#e2e8f0" stroke-width="2"/>
</svg>
