<svg xmlns="http://www.w3.org/2000/svg" width="860" height="430" viewBox="0 0 860 430" role="img" aria-labelledby="title desc">
  <title id="title">Bell state entanglement diagram</title>
  <desc id="desc">Two qubits pass through an H gate and a CNOT gate, producing a Bell state that measures as 00 or 11.</desc>
  <rect width="860" height="430" fill="#f8fafc"/>
  <rect x="36" y="34" width="788" height="362" rx="18" fill="#ffffff" stroke="#cbd5e1" stroke-width="2"/>

  <text x="74" y="78" font-family="Arial, sans-serif" font-size="26" font-weight="700" fill="#0f172a">Bell state: linked outcomes</text>
  <text x="74" y="110" font-family="Arial, sans-serif" font-size="16" fill="#475569">A simple entangled pair gives only 00 or 11 when measured.</text>

  <line x1="88" y1="180" x2="720" y2="180" stroke="#334155" stroke-width="4" stroke-linecap="round"/>
  <line x1="88" y1="270" x2="720" y2="270" stroke="#334155" stroke-width="4" stroke-linecap="round"/>

  <text x="76" y="168" font-family="Arial, sans-serif" font-size="18" font-weight="700" fill="#0f172a">q0</text>
  <text x="76" y="258" font-family="Arial, sans-serif" font-size="18" font-weight="700" fill="#0f172a">q1</text>
  <text x="104" y="158" font-family="Arial, sans-serif" font-size="18" fill="#2563eb">|0&gt;</text>
  <text x="104" y="248" font-family="Arial, sans-serif" font-size="18" fill="#2563eb">|0&gt;</text>

  <rect x="196" y="147" width="66" height="66" rx="12" fill="#dbeafe" stroke="#2563eb" stroke-width="2"/>
  <text x="219" y="188" font-family="Arial, sans-serif" font-size="24" font-weight="700" fill="#1d4ed8">H</text>

  <circle cx="382" cy="180" r="10" fill="#0f172a"/>
  <line x1="382" y1="180" x2="382" y2="270" stroke="#0f172a" stroke-width="4"/>
  <circle cx="382" cy="270" r="30" fill="#fef3c7" stroke="#d97706" stroke-width="3"/>
  <line x1="362" y1="270" x2="402" y2="270" stroke="#d97706" stroke-width="4"/>
  <line x1="382" y1="250" x2="382" y2="290" stroke="#d97706" stroke-width="4"/>
  <text x="344" y="325" font-family="Arial, sans-serif" font-size="16" font-weight="700" fill="#92400e">CNOT</text>

  <rect x="506" y="137" width="166" height="176" rx="18" fill="#ecfdf5" stroke="#059669" stroke-width="2"/>
  <text x="536" y="176" font-family="Arial, sans-serif" font-size="21" font-weight="700" fill="#047857">Entangled</text>
  <text x="530" y="214" font-family="Arial, sans-serif" font-size="18" fill="#064e3b">(|00&gt; + |11&gt;)</text>
  <text x="576" y="244" font-family="Arial, sans-serif" font-size="18" fill="#064e3b">/ sqrt(2)</text>
  <path d="M545 276 C572 250, 604 250, 631 276" fill="none" stroke="#059669" stroke-width="5" stroke-linecap="round"/>
  <circle cx="545" cy="276" r="9" fill="#059669"/>
  <circle cx="631" cy="276" r="9" fill="#059669"/>

  <path d="M692 180 L746 180" stroke="#334155" stroke-width="4" stroke-linecap="round"/>
  <path d="M692 270 L746 270" stroke="#334155" stroke-width="4" stroke-linecap="round"/>
  <rect x="730" y="140" width="70" height="170" rx="14" fill="#fff1f2" stroke="#e11d48" stroke-width="2"/>
  <text x="744" y="194" font-family="Arial, sans-serif" font-size="17" font-weight="700" fill="#be123c">Measure</text>
  <text x="748" y="238" font-family="Arial, sans-serif" font-size="22" font-weight="700" fill="#be123c">00</text>
  <text x="762" y="266" font-family="Arial, sans-serif" font-size="15" fill="#be123c">or</text>
  <text x="748" y="294" font-family="Arial, sans-serif" font-size="22" font-weight="700" fill="#be123c">11</text>
</svg>
