<svg xmlns="http://www.w3.org/2000/svg" width="960" height="430" viewBox="0 0 960 430" role="img" aria-labelledby="title desc">
  <title id="title">Bell pair no-signaling simulation map</title>
  <desc id="desc">A Bell pair circuit feeds Alice and Bob measurements. Bob's local result stays balanced, while comparing both records reveals correlation.</desc>
  <defs>
    <marker id="arrow" markerWidth="10" markerHeight="10" refX="7" refY="3" orient="auto">
      <path d="M0,0 L0,6 L8,3 z" fill="#475569"/>
    </marker>
    <linearGradient id="pair" x1="0" y1="0" x2="1" y2="1">
      <stop offset="0" stop-color="#dbeafe"/>
      <stop offset="1" stop-color="#fef3c7"/>
    </linearGradient>
  </defs>

  <rect width="960" height="430" fill="#f8fafc"/>
  <rect x="32" y="30" width="896" height="370" rx="22" fill="#ffffff" stroke="#cbd5e1" stroke-width="2"/>

  <text x="64" y="76" font-family="Arial, sans-serif" font-size="24" font-weight="700" fill="#0f172a">Bell pair: strong relation, no direct message</text>
  <text x="64" y="104" font-family="Arial, sans-serif" font-size="15" fill="#475569">The simulation separates what Bob sees alone from what appears after Alice and Bob compare records.</text>

  <g transform="translate(66 145)">
    <text x="0" y="-18" font-family="Arial, sans-serif" font-size="15" font-weight="700" fill="#334155">Create entanglement</text>
    <line x1="0" y1="40" x2="260" y2="40" stroke="#334155" stroke-width="3"/>
    <line x1="0" y1="120" x2="260" y2="120" stroke="#334155" stroke-width="3"/>
    <text x="0" y="30" font-family="Cambria Math, STIX Two Math, serif" font-size="16" fill="#0f172a">Alice |0⟩</text>
    <text x="0" y="110" font-family="Cambria Math, STIX Two Math, serif" font-size="16" fill="#0f172a">Bob |0⟩</text>
    <rect x="92" y="18" width="44" height="44" rx="8" fill="#dbeafe" stroke="#2563eb" stroke-width="2"/>
    <text x="107" y="47" font-family="Arial, sans-serif" font-size="20" font-weight="700" fill="#1d4ed8">H</text>
    <circle cx="178" cy="40" r="8" fill="#0f172a"/>
    <line x1="178" y1="40" x2="178" y2="120" stroke="#0f172a" stroke-width="3"/>
    <circle cx="178" cy="120" r="18" fill="#ffffff" stroke="#0f172a" stroke-width="3"/>
    <line x1="160" y1="120" x2="196" y2="120" stroke="#0f172a" stroke-width="3"/>
    <line x1="178" y1="102" x2="178" y2="138" stroke="#0f172a" stroke-width="3"/>
    <rect x="220" y="48" width="84" height="64" rx="18" fill="url(#pair)" stroke="#f59e0b" stroke-width="2"/>
    <text x="239" y="75" font-family="Arial, sans-serif" font-size="15" font-weight="700" fill="#92400e">Bell</text>
    <text x="235" y="94" font-family="Arial, sans-serif" font-size="14" fill="#92400e">pair</text>
  </g>

  <path d="M382 225 H438" stroke="#475569" stroke-width="3" marker-end="url(#arrow)"/>

  <g transform="translate(454 146)">
    <text x="0" y="-18" font-family="Arial, sans-serif" font-size="15" font-weight="700" fill="#334155">Choose bases and measure</text>
    <rect x="0" y="0" width="176" height="64" rx="14" fill="#ecfeff" stroke="#06b6d4" stroke-width="2"/>
    <text x="18" y="28" font-family="Arial, sans-serif" font-size="16" font-weight="700" fill="#155e75">Alice basis</text>
    <text x="18" y="50" font-family="Arial, sans-serif" font-size="15" fill="#155e75">Z or X</text>
    <rect x="0" y="92" width="176" height="64" rx="14" fill="#f0fdf4" stroke="#22c55e" stroke-width="2"/>
    <text x="18" y="120" font-family="Arial, sans-serif" font-size="16" font-weight="700" fill="#166534">Bob basis</text>
    <text x="18" y="142" font-family="Arial, sans-serif" font-size="15" fill="#166534">Z or X</text>
  </g>

  <path d="M644 194 H692" stroke="#475569" stroke-width="3" marker-end="url(#arrow)"/>
  <path d="M644 286 H692" stroke="#475569" stroke-width="3" marker-end="url(#arrow)"/>

  <g transform="translate(708 118)">
    <rect x="0" y="0" width="172" height="114" rx="16" fill="#f1f5f9" stroke="#94a3b8" stroke-width="2"/>
    <text x="18" y="30" font-family="Arial, sans-serif" font-size="16" font-weight="700" fill="#0f172a">Bob local results</text>
    <rect x="22" y="54" width="54" height="34" rx="8" fill="#93c5fd"/>
    <rect x="96" y="54" width="54" height="34" rx="8" fill="#93c5fd"/>
    <text x="44" y="77" font-family="Arial, sans-serif" font-size="17" font-weight="700" fill="#1e3a8a">0</text>
    <text x="118" y="77" font-family="Arial, sans-serif" font-size="17" font-weight="700" fill="#1e3a8a">1</text>
    <text x="31" y="104" font-family="Arial, sans-serif" font-size="14" fill="#475569">about half each</text>
  </g>

  <g transform="translate(708 266)">
    <rect x="0" y="0" width="172" height="98" rx="16" fill="#fffbeb" stroke="#f59e0b" stroke-width="2"/>
    <text x="18" y="30" font-family="Arial, sans-serif" font-size="16" font-weight="700" fill="#92400e">Compare records</text>
    <text x="26" y="58" font-family="Arial, sans-serif" font-size="18" font-weight="700" fill="#92400e">00  11</text>
    <text x="26" y="82" font-family="Arial, sans-serif" font-size="14" fill="#92400e">same basis: strong match</text>
  </g>
</svg>
