<svg xmlns="http://www.w3.org/2000/svg" width="900" height="520" viewBox="0 0 900 520" role="img" aria-labelledby="title desc">
  <title id="title">Measurement turns a qubit state into one observed result</title>
  <desc id="desc">A simple diagram showing a qubit state, a measurement step, and one resulting measured state.</desc>
  <rect width="900" height="520" fill="#f7f8fb"/>
  <text x="450" y="70" text-anchor="middle" font-family="Arial, sans-serif" font-size="30" font-weight="700" fill="#182233">Quantum measurement</text>

  <rect x="56" y="142" width="240" height="210" rx="16" fill="#ffffff" stroke="#cfd6e4" stroke-width="2"/>
  <text x="176" y="190" text-anchor="middle" font-family="Arial, sans-serif" font-size="22" font-weight="700" fill="#1e293b">Before</text>
  <text x="176" y="242" text-anchor="middle" font-family="Cambria Math, STIX Two Math, serif" font-size="24" fill="#334155">α|0⟩ + β|1⟩</text>
  <text x="176" y="292" text-anchor="middle" font-family="Arial, sans-serif" font-size="18" fill="#64748b">superposition state</text>

  <path d="M316 247 L411 247" stroke="#64748b" stroke-width="6" stroke-linecap="round"/>
  <path d="M398 225 L424 247 L398 269" fill="none" stroke="#64748b" stroke-width="6" stroke-linecap="round" stroke-linejoin="round"/>

  <rect x="432" y="142" width="180" height="210" rx="16" fill="#fff7ed" stroke="#fb923c" stroke-width="2"/>
  <text x="522" y="190" text-anchor="middle" font-family="Arial, sans-serif" font-size="22" font-weight="700" fill="#9a3412">Measure</text>
  <circle cx="522" cy="258" r="44" fill="#fed7aa" stroke="#fb923c" stroke-width="4"/>
  <text x="522" y="270" text-anchor="middle" font-family="Arial, sans-serif" font-size="34" font-weight="700" fill="#9a3412">?</text>

  <path d="M632 247 L727 247" stroke="#64748b" stroke-width="6" stroke-linecap="round"/>
  <path d="M714 225 L740 247 L714 269" fill="none" stroke="#64748b" stroke-width="6" stroke-linecap="round" stroke-linejoin="round"/>

  <rect x="752" y="142" width="92" height="92" rx="16" fill="#e9f3ff" stroke="#2f80ed" stroke-width="4"/>
  <text x="798" y="200" text-anchor="middle" font-family="Cambria Math, STIX Two Math, serif" font-size="34" font-weight="700" fill="#1d4ed8">|0⟩</text>
  <rect x="752" y="260" width="92" height="92" rx="16" fill="#f3ecff" stroke="#8b5cf6" stroke-width="4"/>
  <text x="798" y="318" text-anchor="middle" font-family="Cambria Math, STIX Two Math, serif" font-size="34" font-weight="700" fill="#6d28d9">|1⟩</text>

  <rect x="138" y="404" width="624" height="42" rx="21" fill="#eef2ff"/>
  <text x="450" y="431" text-anchor="middle" font-family="Arial, sans-serif" font-size="18" fill="#334155">After measurement, the observed state is one basis state.</text>
</svg>
